<mxfile host="65bd71144e">
    <diagram id="sqh2nvEbb2Q2xoJa_0Ur" name="Page-1">
        <mxGraphModel dx="1273" dy="971" grid="1" gridSize="10" guides="1" tooltips="1" connect="1" arrows="1" fold="1" page="1" pageScale="1" pageWidth="850" pageHeight="1100" math="0" shadow="0">
            <root>
                <mxCell id="0"/>
                <mxCell id="1" parent="0"/>
                <mxCell id="7" value="" style="rounded=1;whiteSpace=wrap;html=1;fontFamily=Consolas;fontSource=https%3A%2F%2Ffonts.googleapis.com%2Fcss%3Ffamily%3DConsolas;fontSize=16;fillColor=#0050ef;fontColor=#ffffff;strokeColor=#001DBC;" parent="1" vertex="1">
                    <mxGeometry x="155" y="150" width="285" height="460" as="geometry"/>
                </mxCell>
                <mxCell id="2" value="&lt;p style=&quot;font-size: 16px;&quot;&gt;#get_information_about_scan&lt;/p&gt;" style="rounded=1;whiteSpace=wrap;html=1;fontSize=16;fontFamily=Consolas;fontSource=https%3A%2F%2Ffonts.googleapis.com%2Fcss%3Ffamily%3DConsolas;" parent="1" vertex="1">
                    <mxGeometry x="175" y="190" width="240" height="50" as="geometry"/>
                </mxCell>
                <mxCell id="3" value="&lt;p style=&quot;font-size: 16px;&quot;&gt;#get_scans&lt;/p&gt;" style="rounded=1;whiteSpace=wrap;html=1;fontSize=16;fontFamily=Consolas;fontSource=https%3A%2F%2Ffonts.googleapis.com%2Fcss%3Ffamily%3DConsolas;" parent="1" vertex="1">
                    <mxGeometry x="175" y="280" width="240" height="50" as="geometry"/>
                </mxCell>
                <mxCell id="4" value="&lt;p style=&quot;font-size: 16px;&quot;&gt;#get_analyses&lt;/p&gt;" style="rounded=1;whiteSpace=wrap;html=1;fontSize=16;fontFamily=Consolas;fontSource=https%3A%2F%2Ffonts.googleapis.com%2Fcss%3Ffamily%3DConsolas;" parent="1" vertex="1">
                    <mxGeometry x="175" y="370" width="240" height="50" as="geometry"/>
                </mxCell>
                <mxCell id="5" value="&lt;p style=&quot;font-size: 16px;&quot;&gt;#init&lt;/p&gt;" style="rounded=1;whiteSpace=wrap;html=1;fontSize=16;fontFamily=Consolas;fontSource=https%3A%2F%2Ffonts.googleapis.com%2Fcss%3Ffamily%3DConsolas;" parent="1" vertex="1">
                    <mxGeometry x="175" y="520" width="240" height="50" as="geometry"/>
                </mxCell>
                <mxCell id="6" value="scans.db" style="shape=datastore;whiteSpace=wrap;html=1;fontFamily=Consolas;fontSource=https%3A%2F%2Ffonts.googleapis.com%2Fcss%3Ffamily%3DConsolas;fontSize=23;verticalAlign=top;" parent="1" vertex="1">
                    <mxGeometry x="980" y="280" width="210" height="260" as="geometry"/>
                </mxCell>
                <mxCell id="8" value="" style="endArrow=classic;html=1;fontFamily=Consolas;fontSource=https%3A%2F%2Ffonts.googleapis.com%2Fcss%3Ffamily%3DConsolas;fontSize=16;entryX=0;entryY=0.5;entryDx=0;entryDy=0;exitX=0.999;exitY=0.283;exitDx=0;exitDy=0;exitPerimeter=0;" parent="1" source="11" target="2" edge="1">
                    <mxGeometry width="50" height="50" relative="1" as="geometry">
                        <mxPoint x="125" y="215" as="sourcePoint"/>
                        <mxPoint x="135" y="210" as="targetPoint"/>
                    </mxGeometry>
                </mxCell>
                <mxCell id="9" value="" style="endArrow=classic;html=1;fontFamily=Consolas;fontSource=https%3A%2F%2Ffonts.googleapis.com%2Fcss%3Ffamily%3DConsolas;fontSize=16;entryX=0;entryY=0.5;entryDx=0;entryDy=0;exitX=1;exitY=0.527;exitDx=0;exitDy=0;exitPerimeter=0;" parent="1" source="11" target="3" edge="1">
                    <mxGeometry width="50" height="50" relative="1" as="geometry">
                        <mxPoint x="125" y="305" as="sourcePoint"/>
                        <mxPoint x="165" y="290" as="targetPoint"/>
                    </mxGeometry>
                </mxCell>
                <mxCell id="10" value="" style="endArrow=classic;html=1;fontFamily=Consolas;fontSource=https%3A%2F%2Ffonts.googleapis.com%2Fcss%3Ffamily%3DConsolas;fontSize=16;entryX=0;entryY=0.5;entryDx=0;entryDy=0;exitX=0.999;exitY=0.771;exitDx=0;exitDy=0;exitPerimeter=0;" parent="1" source="11" target="4" edge="1">
                    <mxGeometry width="50" height="50" relative="1" as="geometry">
                        <mxPoint x="135" y="395" as="sourcePoint"/>
                        <mxPoint x="155" y="390" as="targetPoint"/>
                    </mxGeometry>
                </mxCell>
                <mxCell id="11" value="Other modules" style="rounded=1;whiteSpace=wrap;html=1;fontFamily=Consolas;fontSource=https%3A%2F%2Ffonts.googleapis.com%2Fcss%3Ffamily%3DConsolas;fontSize=16;" parent="1" vertex="1">
                    <mxGeometry x="20" y="150" width="90" height="300" as="geometry"/>
                </mxCell>
                <mxCell id="12" value="" style="endArrow=classic;html=1;fontFamily=Consolas;fontSource=https%3A%2F%2Ffonts.googleapis.com%2Fcss%3Ffamily%3DConsolas;fontSize=16;entryX=0;entryY=1;entryDx=0;entryDy=0;exitX=0.5;exitY=0;exitDx=0;exitDy=0;" parent="1" source="13" target="5" edge="1">
                    <mxGeometry width="50" height="50" relative="1" as="geometry">
                        <mxPoint x="100" y="700" as="sourcePoint"/>
                        <mxPoint x="210" y="690" as="targetPoint"/>
                    </mxGeometry>
                </mxCell>
                <mxCell id="13" value="refresh_db.bat" style="rounded=1;whiteSpace=wrap;html=1;fontFamily=Consolas;fontSource=https%3A%2F%2Ffonts.googleapis.com%2Fcss%3Ffamily%3DConsolas;fontSize=16;" parent="1" vertex="1">
                    <mxGeometry x="20" y="720" width="165" height="60" as="geometry"/>
                </mxCell>
                <mxCell id="14" value="&lt;font color=&quot;#0050ef&quot; data-font-src=&quot;https://fonts.googleapis.com/css?family=Consolas&quot; face=&quot;Consolas&quot; style=&quot;font-size: 21px;&quot;&gt;db.py&lt;/font&gt;" style="text;html=1;strokeColor=none;fillColor=none;align=center;verticalAlign=middle;whiteSpace=wrap;rounded=0;fontStyle=4" vertex="1" parent="1">
                    <mxGeometry x="160" y="110" width="280" height="40" as="geometry"/>
                </mxCell>
                <mxCell id="15" value="" style="endArrow=classic;html=1;fontFamily=Consolas;fontSource=https%3A%2F%2Ffonts.googleapis.com%2Fcss%3Ffamily%3DConsolas;fontSize=23;fontColor=#0050ef;exitX=1;exitY=0.5;exitDx=0;exitDy=0;entryX=0;entryY=0.5;entryDx=0;entryDy=0;" edge="1" parent="1" source="2" target="17">
                    <mxGeometry width="50" height="50" relative="1" as="geometry">
                        <mxPoint x="460" y="190" as="sourcePoint"/>
                        <mxPoint x="460" y="185" as="targetPoint"/>
                    </mxGeometry>
                </mxCell>
                <mxCell id="17" value="SELECT * FROM information WHERE name=?" style="rounded=1;whiteSpace=wrap;html=1;fontFamily=Consolas;fontSource=https%3A%2F%2Ffonts.googleapis.com%2Fcss%3Ffamily%3DConsolas;fontSize=16;fontColor=#ffffff;fillColor=#6a00ff;strokeColor=#3700CC;" vertex="1" parent="1">
                    <mxGeometry x="560" y="160" width="290" height="70" as="geometry"/>
                </mxCell>
                <mxCell id="18" value="&lt;font color=&quot;#6a00ff&quot; data-font-src=&quot;https://fonts.googleapis.com/css?family=Consolas&quot; face=&quot;Consolas&quot; style=&quot;font-size: 20px;&quot;&gt;Structured Query Language (SQL)&lt;/font&gt;" style="text;html=1;strokeColor=none;fillColor=none;align=center;verticalAlign=middle;whiteSpace=wrap;rounded=0;fontStyle=4;fontSize=20;" vertex="1" parent="1">
                    <mxGeometry x="570" y="90" width="280" height="70" as="geometry"/>
                </mxCell>
                <mxCell id="19" value="SELECT name FROM information WHERE mode=1" style="rounded=1;whiteSpace=wrap;html=1;fontFamily=Consolas;fontSource=https%3A%2F%2Ffonts.googleapis.com%2Fcss%3Ffamily%3DConsolas;fontSize=16;fontColor=#ffffff;fillColor=#6a00ff;strokeColor=#3700CC;" vertex="1" parent="1">
                    <mxGeometry x="560" y="270" width="290" height="70" as="geometry"/>
                </mxCell>
                <mxCell id="20" value="" style="endArrow=classic;html=1;fontFamily=Consolas;fontSource=https%3A%2F%2Ffonts.googleapis.com%2Fcss%3Ffamily%3DConsolas;fontSize=23;fontColor=#0050ef;exitX=1;exitY=0.5;exitDx=0;exitDy=0;entryX=0;entryY=0.5;entryDx=0;entryDy=0;" edge="1" parent="1" source="3" target="19">
                    <mxGeometry width="50" height="50" relative="1" as="geometry">
                        <mxPoint x="440" y="310" as="sourcePoint"/>
                        <mxPoint x="590" y="290" as="targetPoint"/>
                    </mxGeometry>
                </mxCell>
                <mxCell id="21" value="SELECT name FROM information WHERE mode=0" style="rounded=1;whiteSpace=wrap;html=1;fontFamily=Consolas;fontSource=https%3A%2F%2Ffonts.googleapis.com%2Fcss%3Ffamily%3DConsolas;fontSize=16;fontColor=#ffffff;fillColor=#6a00ff;strokeColor=#3700CC;" vertex="1" parent="1">
                    <mxGeometry x="560" y="380" width="290" height="70" as="geometry"/>
                </mxCell>
                <mxCell id="22" value="" style="endArrow=classic;html=1;fontFamily=Consolas;fontSource=https%3A%2F%2Ffonts.googleapis.com%2Fcss%3Ffamily%3DConsolas;fontSize=23;fontColor=#0050ef;exitX=1;exitY=0.5;exitDx=0;exitDy=0;entryX=0;entryY=0.5;entryDx=0;entryDy=0;" edge="1" parent="1" source="4" target="21">
                    <mxGeometry width="50" height="50" relative="1" as="geometry">
                        <mxPoint x="425" y="315" as="sourcePoint"/>
                        <mxPoint x="570" y="315" as="targetPoint"/>
                    </mxGeometry>
                </mxCell>
                <mxCell id="23" value="CREATE TABLE IF NOT EXISTS ..." style="rounded=1;whiteSpace=wrap;html=1;fontFamily=Consolas;fontSource=https%3A%2F%2Ffonts.googleapis.com%2Fcss%3Ffamily%3DConsolas;fontSize=16;fontColor=#ffffff;fillColor=#7A10FF;strokeColor=#3700CC;" vertex="1" parent="1">
                    <mxGeometry x="560" y="540" width="290" height="70" as="geometry"/>
                </mxCell>
                <mxCell id="24" value="INSERT INTO ..." style="rounded=1;whiteSpace=wrap;html=1;fontFamily=Consolas;fontSource=https%3A%2F%2Ffonts.googleapis.com%2Fcss%3Ffamily%3DConsolas;fontSize=16;fontColor=#ffffff;fillColor=#7A10FF;strokeColor=#3700CC;" vertex="1" parent="1">
                    <mxGeometry x="560" y="630" width="290" height="70" as="geometry"/>
                </mxCell>
                <mxCell id="25" value="" style="endArrow=classic;html=1;fontFamily=Consolas;fontSource=https%3A%2F%2Ffonts.googleapis.com%2Fcss%3Ffamily%3DConsolas;fontSize=20;fontColor=#6a00ff;exitX=1;exitY=0.5;exitDx=0;exitDy=0;entryX=0;entryY=0.5;entryDx=0;entryDy=0;" edge="1" parent="1" source="5" target="23">
                    <mxGeometry width="50" height="50" relative="1" as="geometry">
                        <mxPoint x="480" y="590" as="sourcePoint"/>
                        <mxPoint x="530" y="540" as="targetPoint"/>
                    </mxGeometry>
                </mxCell>
                <mxCell id="26" value="" style="endArrow=classic;html=1;fontFamily=Consolas;fontSource=https%3A%2F%2Ffonts.googleapis.com%2Fcss%3Ffamily%3DConsolas;fontSize=20;fontColor=#6a00ff;exitX=1;exitY=0.75;exitDx=0;exitDy=0;entryX=0;entryY=0.5;entryDx=0;entryDy=0;" edge="1" parent="1" source="5" target="24">
                    <mxGeometry width="50" height="50" relative="1" as="geometry">
                        <mxPoint x="430" y="730" as="sourcePoint"/>
                        <mxPoint x="480" y="680" as="targetPoint"/>
                    </mxGeometry>
                </mxCell>
                <mxCell id="27" value="READ" style="endArrow=classic;html=1;fontFamily=Consolas;fontSource=https%3A%2F%2Ffonts.googleapis.com%2Fcss%3Ffamily%3DConsolas;fontSize=20;fontColor=#6a00ff;exitX=1;exitY=0.5;exitDx=0;exitDy=0;entryX=-0.002;entryY=0.121;entryDx=0;entryDy=0;entryPerimeter=0;" edge="1" parent="1" source="17" target="6">
                    <mxGeometry width="50" height="50" relative="1" as="geometry">
                        <mxPoint x="930" y="230" as="sourcePoint"/>
                        <mxPoint x="980" y="180" as="targetPoint"/>
                    </mxGeometry>
                </mxCell>
                <mxCell id="28" value="READ" style="endArrow=classic;html=1;fontFamily=Consolas;fontSource=https%3A%2F%2Ffonts.googleapis.com%2Fcss%3Ffamily%3DConsolas;fontSize=20;fontColor=#6a00ff;exitX=1;exitY=0.5;exitDx=0;exitDy=0;entryX=-0.003;entryY=0.262;entryDx=0;entryDy=0;entryPerimeter=0;" edge="1" parent="1" source="19" target="6">
                    <mxGeometry width="50" height="50" relative="1" as="geometry">
                        <mxPoint x="860" y="205" as="sourcePoint"/>
                        <mxPoint x="987.9000000000001" y="319.1199999999999" as="targetPoint"/>
                    </mxGeometry>
                </mxCell>
                <mxCell id="29" value="READ" style="endArrow=classic;html=1;fontFamily=Consolas;fontSource=https%3A%2F%2Ffonts.googleapis.com%2Fcss%3Ffamily%3DConsolas;fontSize=20;fontColor=#6a00ff;exitX=1;exitY=0.5;exitDx=0;exitDy=0;entryX=-0.003;entryY=0.403;entryDx=0;entryDy=0;entryPerimeter=0;" edge="1" parent="1" source="21" target="6">
                    <mxGeometry width="50" height="50" relative="1" as="geometry">
                        <mxPoint x="870" y="215" as="sourcePoint"/>
                        <mxPoint x="997.9000000000001" y="329.1199999999999" as="targetPoint"/>
                    </mxGeometry>
                </mxCell>
                <mxCell id="30" value="&lt;font color=&quot;#7a10ff&quot;&gt;WRITE&lt;/font&gt;" style="endArrow=classic;html=1;fontFamily=Consolas;fontSource=https%3A%2F%2Ffonts.googleapis.com%2Fcss%3Ffamily%3DConsolas;fontSize=20;fontColor=#6a00ff;exitX=1;exitY=0.5;exitDx=0;exitDy=0;entryX=0.008;entryY=0.904;entryDx=0;entryDy=0;entryPerimeter=0;" edge="1" parent="1" source="23" target="6">
                    <mxGeometry width="50" height="50" relative="1" as="geometry">
                        <mxPoint x="880" y="225" as="sourcePoint"/>
                        <mxPoint x="1007.9000000000001" y="339.1199999999999" as="targetPoint"/>
                    </mxGeometry>
                </mxCell>
                <mxCell id="31" value="&lt;font color=&quot;#7a10ff&quot;&gt;WRITE&lt;/font&gt;" style="endArrow=classic;html=1;fontFamily=Consolas;fontSource=https%3A%2F%2Ffonts.googleapis.com%2Fcss%3Ffamily%3DConsolas;fontSize=20;fontColor=#6a00ff;exitX=1;exitY=0.5;exitDx=0;exitDy=0;entryX=0.053;entryY=0.938;entryDx=0;entryDy=0;entryPerimeter=0;" edge="1" parent="1" source="24" target="6">
                    <mxGeometry width="50" height="50" relative="1" as="geometry">
                        <mxPoint x="890" y="235" as="sourcePoint"/>
                        <mxPoint x="1017.9000000000001" y="349.1199999999999" as="targetPoint"/>
                    </mxGeometry>
                </mxCell>
                <mxCell id="32" value="information" style="shape=table;startSize=30;container=1;collapsible=0;childLayout=tableLayout;fontStyle=1;align=center;fontFamily=Consolas;fontSource=https%3A%2F%2Ffonts.googleapis.com%2Fcss%3Ffamily%3DConsolas;fontSize=20;fontColor=#6a00ff;" vertex="1" parent="1">
                    <mxGeometry x="994" y="410" width="180" height="90" as="geometry"/>
                </mxCell>
                <mxCell id="33" value="" style="shape=tableRow;horizontal=0;startSize=0;swimlaneHead=0;swimlaneBody=0;top=0;left=0;bottom=0;right=0;collapsible=0;dropTarget=0;fillColor=none;points=[[0,0.5],[1,0.5]];portConstraint=eastwest;fontFamily=Consolas;fontSource=https%3A%2F%2Ffonts.googleapis.com%2Fcss%3Ffamily%3DConsolas;fontSize=20;fontColor=#6a00ff;" vertex="1" parent="32">
                    <mxGeometry y="30" width="180" height="20" as="geometry"/>
                </mxCell>
                <mxCell id="34" value="" style="shape=partialRectangle;html=1;whiteSpace=wrap;connectable=0;fillColor=none;top=0;left=0;bottom=0;right=0;overflow=hidden;fontFamily=Consolas;fontSource=https%3A%2F%2Ffonts.googleapis.com%2Fcss%3Ffamily%3DConsolas;fontSize=20;fontColor=#6a00ff;" vertex="1" parent="33">
                    <mxGeometry width="60" height="20" as="geometry">
                        <mxRectangle width="60" height="20" as="alternateBounds"/>
                    </mxGeometry>
                </mxCell>
                <mxCell id="35" value="" style="shape=partialRectangle;html=1;whiteSpace=wrap;connectable=0;fillColor=none;top=0;left=0;bottom=0;right=0;overflow=hidden;fontFamily=Consolas;fontSource=https%3A%2F%2Ffonts.googleapis.com%2Fcss%3Ffamily%3DConsolas;fontSize=20;fontColor=#6a00ff;" vertex="1" parent="33">
                    <mxGeometry x="60" width="60" height="20" as="geometry">
                        <mxRectangle width="60" height="20" as="alternateBounds"/>
                    </mxGeometry>
                </mxCell>
                <mxCell id="36" value="" style="shape=partialRectangle;html=1;whiteSpace=wrap;connectable=0;fillColor=none;top=0;left=0;bottom=0;right=0;overflow=hidden;fontFamily=Consolas;fontSource=https%3A%2F%2Ffonts.googleapis.com%2Fcss%3Ffamily%3DConsolas;fontSize=20;fontColor=#6a00ff;" vertex="1" parent="33">
                    <mxGeometry x="120" width="60" height="20" as="geometry">
                        <mxRectangle width="60" height="20" as="alternateBounds"/>
                    </mxGeometry>
                </mxCell>
                <mxCell id="37" value="" style="shape=tableRow;horizontal=0;startSize=0;swimlaneHead=0;swimlaneBody=0;top=0;left=0;bottom=0;right=0;collapsible=0;dropTarget=0;fillColor=none;points=[[0,0.5],[1,0.5]];portConstraint=eastwest;fontFamily=Consolas;fontSource=https%3A%2F%2Ffonts.googleapis.com%2Fcss%3Ffamily%3DConsolas;fontSize=20;fontColor=#6a00ff;" vertex="1" parent="32">
                    <mxGeometry y="50" width="180" height="20" as="geometry"/>
                </mxCell>
                <mxCell id="38" value="" style="shape=partialRectangle;html=1;whiteSpace=wrap;connectable=0;fillColor=none;top=0;left=0;bottom=0;right=0;overflow=hidden;fontFamily=Consolas;fontSource=https%3A%2F%2Ffonts.googleapis.com%2Fcss%3Ffamily%3DConsolas;fontSize=20;fontColor=#6a00ff;" vertex="1" parent="37">
                    <mxGeometry width="60" height="20" as="geometry">
                        <mxRectangle width="60" height="20" as="alternateBounds"/>
                    </mxGeometry>
                </mxCell>
                <mxCell id="39" value="" style="shape=partialRectangle;html=1;whiteSpace=wrap;connectable=0;fillColor=none;top=0;left=0;bottom=0;right=0;overflow=hidden;fontFamily=Consolas;fontSource=https%3A%2F%2Ffonts.googleapis.com%2Fcss%3Ffamily%3DConsolas;fontSize=20;fontColor=#6a00ff;" vertex="1" parent="37">
                    <mxGeometry x="60" width="60" height="20" as="geometry">
                        <mxRectangle width="60" height="20" as="alternateBounds"/>
                    </mxGeometry>
                </mxCell>
                <mxCell id="40" value="" style="shape=partialRectangle;html=1;whiteSpace=wrap;connectable=0;fillColor=none;top=0;left=0;bottom=0;right=0;overflow=hidden;fontFamily=Consolas;fontSource=https%3A%2F%2Ffonts.googleapis.com%2Fcss%3Ffamily%3DConsolas;fontSize=20;fontColor=#6a00ff;" vertex="1" parent="37">
                    <mxGeometry x="120" width="60" height="20" as="geometry">
                        <mxRectangle width="60" height="20" as="alternateBounds"/>
                    </mxGeometry>
                </mxCell>
                <mxCell id="41" value="" style="shape=tableRow;horizontal=0;startSize=0;swimlaneHead=0;swimlaneBody=0;top=0;left=0;bottom=0;right=0;collapsible=0;dropTarget=0;fillColor=none;points=[[0,0.5],[1,0.5]];portConstraint=eastwest;fontFamily=Consolas;fontSource=https%3A%2F%2Ffonts.googleapis.com%2Fcss%3Ffamily%3DConsolas;fontSize=20;fontColor=#6a00ff;" vertex="1" parent="32">
                    <mxGeometry y="70" width="180" height="20" as="geometry"/>
                </mxCell>
                <mxCell id="42" value="" style="shape=partialRectangle;html=1;whiteSpace=wrap;connectable=0;fillColor=none;top=0;left=0;bottom=0;right=0;overflow=hidden;fontFamily=Consolas;fontSource=https%3A%2F%2Ffonts.googleapis.com%2Fcss%3Ffamily%3DConsolas;fontSize=20;fontColor=#6a00ff;" vertex="1" parent="41">
                    <mxGeometry width="60" height="20" as="geometry">
                        <mxRectangle width="60" height="20" as="alternateBounds"/>
                    </mxGeometry>
                </mxCell>
                <mxCell id="43" value="" style="shape=partialRectangle;html=1;whiteSpace=wrap;connectable=0;fillColor=none;top=0;left=0;bottom=0;right=0;overflow=hidden;fontFamily=Consolas;fontSource=https%3A%2F%2Ffonts.googleapis.com%2Fcss%3Ffamily%3DConsolas;fontSize=20;fontColor=#6a00ff;" vertex="1" parent="41">
                    <mxGeometry x="60" width="60" height="20" as="geometry">
                        <mxRectangle width="60" height="20" as="alternateBounds"/>
                    </mxGeometry>
                </mxCell>
                <mxCell id="44" value="" style="shape=partialRectangle;html=1;whiteSpace=wrap;connectable=0;fillColor=none;top=0;left=0;bottom=0;right=0;overflow=hidden;fontFamily=Consolas;fontSource=https%3A%2F%2Ffonts.googleapis.com%2Fcss%3Ffamily%3DConsolas;fontSize=20;fontColor=#6a00ff;" vertex="1" parent="41">
                    <mxGeometry x="120" width="60" height="20" as="geometry">
                        <mxRectangle width="60" height="20" as="alternateBounds"/>
                    </mxGeometry>
                </mxCell>
            </root>
        </mxGraphModel>
    </diagram>
</mxfile>
